<?xml version="1.0" standalone="no"?><!DOCTYPE svg PUBLIC "-//W3C//DTD SVG 1.1//EN" "http://www.w3.org/Graphics/SVG/1.1/DTD/svg11.dtd"><svg t="1627894487872" class="icon" viewBox="0 0 1024 1024" version="1.1" xmlns="http://www.w3.org/2000/svg" p-id="1804" xmlns:xlink="http://www.w3.org/1999/xlink" width="200" height="200"><defs><style type="text/css"></style></defs><path d="M697.173333 1.194667H97.28C44.145778 1.194667 1.137778 44.145778 1.137778 97.28V927.857778c0 53.077333 42.951111 96.028444 96.028444 96.028444H927.857778c53.077333 0 96.028444-42.951111 96.028444-96.028444V327.68L697.173333 1.251556zM269.084444 97.28h289.336889v274.488889a47.957333 47.957333 0 0 1-48.014222 48.014222H317.041778a47.957333 47.957333 0 0 1-47.957334-48.014222V97.28zM927.857778 927.857778H97.28V97.28h75.832889v274.488889a144.099556 144.099556 0 0 0 143.985778 144.042667h193.365333a144.099556 144.099556 0 0 0 143.985778-144.042667V97.28h3.072l270.222222 270.222222v560.412445h0.170667zM455.68 323.697778a47.957333 47.957333 0 0 0 48.071111-47.957334V218.396444a47.957333 47.957333 0 1 0-96.028444 0v57.344c0 26.510222 21.504 48.014222 48.014222 48.014223z" p-id="1805" fill="#707070"></path></svg>